<?xml version="1.0" encoding="utf-8"?>
<!-- Generator: Adobe Illustrator 16.0.0, SVG Export Plug-In . SVG Version: 6.00 Build 0)  -->
<!DOCTYPE svg PUBLIC "-//W3C//DTD SVG 1.1//EN" "http://www.w3.org/Graphics/SVG/1.1/DTD/svg11.dtd">
<svg version="1.1" id="Layer_1" xmlns="http://www.w3.org/2000/svg" xmlns:xlink="http://www.w3.org/1999/xlink" x="0px" y="0px"
	 width="692.813px" height="398.491px" viewBox="0 0 692.813 398.491" enable-background="new 0 0 692.813 398.491"
	 xml:space="preserve">
<g>
	<path fill="#4D5E6C" d="M86.4,62.176H0V30.685h207.119v31.492h-86.4v243.859H86.4V62.176z"/>
	<path fill="#4D5E6C" d="M443.706,3.634L476.005,0v306.036h-32.299V3.634z"/>
	<path fill="#4D5E6C" d="M660.919,289.885c-7.811,5.652-17.027,10.637-27.656,14.939c-10.637,4.301-20.389,6.459-29.271,6.459
		c-11.039,0-21.469-1.887-31.291-5.652c-9.828-3.766-18.439-9.822-25.838-18.168c-7.406-8.34-13.262-19.178-17.562-32.502
		c-4.309-13.322-6.461-29.674-6.461-49.055c0-18.3,3.029-34.178,9.084-47.641c6.057-13.456,13.859-24.559,23.418-33.309
		c9.551-8.743,20.188-15.272,31.895-19.581c11.709-4.302,23.076-6.46,34.117-6.46c10.225,0,18.572,0.605,25.031,1.817
		c6.459,1.211,12.111,2.492,16.957,3.835c4.846,1.35,9.418,2.625,13.727,3.835c4.303,1.211,9.551,1.817,15.746,1.817v284.232
		l-31.895,4.037V289.885z M607.624,283.022c5.918,0,11.975-1.072,18.17-3.23c6.188-2.15,12.111-4.705,17.764-7.67
		c5.652-2.959,11.438-6.461,17.361-10.498V132.831c-2.424-0.807-5.389-1.748-8.883-2.826c-2.965-0.536-7.002-1.142-12.111-1.817
		c-5.117-0.668-11.305-1.009-18.572-1.009c-11.305,0-20.996,2.019-29.07,6.056c-8.074,4.038-14.736,9.627-19.984,16.755
		c-5.25,7.135-9.084,15.342-11.508,24.628c-2.422,9.286-3.633,19.178-3.633,29.675c0,9.425,1.01,18.843,3.027,28.263
		c2.02,9.424,5.18,17.902,9.488,25.436c4.303,7.537,9.551,13.594,15.746,18.168C591.608,280.739,599.007,283.022,607.624,283.022z"
		/>
</g>
<g>
	<defs>
		<circle id="SVGID_1_" cx="298.263" cy="204.004" r="109.467"/>
	</defs>
	<clipPath id="SVGID_2_">
		<use xlink:href="#SVGID_1_"  overflow="visible"/>
	</clipPath>
	<g clip-path="url(#SVGID_2_)">
		<g id="Shape_12">
			<g>
				<rect x="367.438" y="93.538" fill="#B6CA94" width="40.905" height="223.869"/>
			</g>
		</g>
		<g id="Shape_11">
			<g>
				<rect x="340.17" y="93.538" fill="#8CAB62" width="27.491" height="223.807"/>
			</g>
		</g>
		<g id="Shape_10">
			<g>
				<rect x="312.911" y="93.538" fill="#A1BC78" width="27.496" height="223.869"/>
			</g>
		</g>
		<g id="Shape_9">
			<g>
				<rect x="296.084" y="93.538" fill="#D9E5C5" width="17.042" height="223.869"/>
			</g>
		</g>
		<g id="Shape_8">
			<g>
				<rect x="250.184" y="93.538" fill="#B6CEB8" width="46.356" height="223.869"/>
			</g>
		</g>
		<g id="Shape_7">
			<g>
				<rect x="223.687" y="93.538" fill="#B9CFE4" width="27.497" height="223.869"/>
			</g>
		</g>
		<g id="Shape_6">
			<g>
				<rect x="207.465" y="93.538" fill="#5183BB" width="16.363" height="223.807"/>
			</g>
		</g>
		<g id="Shape_5">
			<g>
				<rect x="188.464" y="93.538" fill="#2C66AB" width="19.087" height="223.807"/>
			</g>
		</g>
	</g>
</g>
<g>
</g>
<g>
</g>
<g>
</g>
<g>
</g>
<g>
</g>
<g>
</g>
</svg>
